HIERARCHY
ROOT Spine
{
    OFFSET 0.0 0.0 -0.0
    CHANNELS 6 Xposition Yposition Zposition Zrotation Xrotation Yrotation
    JOINT ShoulderCenter
    {
        OFFSET 0.0 31.613771438598633 0.0
        CHANNELS 3 Zrotation Xrotation Yrotation
        JOINT LeftShoulder
        {
            OFFSET 16.985023498535156 0.0 0.0
            CHANNELS 3 Zrotation Xrotation Yrotation
            JOINT LeftElbow
            {
                OFFSET 30.426177978515625 0.0 0.0
                CHANNELS 3 Zrotation Xrotation Yrotation
                JOINT LeftHand
                {
                    OFFSET 28.49898338317871 0.0 0.0
                    CHANNELS 3 Zrotation Xrotation Yrotation
                    End Site
                    {
                        OFFSET 11.399593353271484 0.0 0.0
                    }
                }
            }
        }
        JOINT RightShoulder
        {
            OFFSET -16.985023498535156 0.0 0.0
            CHANNELS 3 Zrotation Xrotation Yrotation
            JOINT RightElbow
            {
                OFFSET -30.426177978515625 0.0 0.0
                CHANNELS 3 Zrotation Xrotation Yrotation
                JOINT RightHand
                {
                    OFFSET -28.49898338317871 0.0 0.0
                    CHANNELS 3 Zrotation Xrotation Yrotation
                    End Site
                    {
                        OFFSET -11.399593353271484 0.0 0.0
                    }
                }
            }
        }
        End Site
        {
            OFFSET 0.0 12.645508766174316 0.0
        }
    }
    JOINT LeftHip
    {
        OFFSET 18.05918145368515 -18.05918145368515 0.0
        CHANNELS 3 Zrotation Xrotation Yrotation
        JOINT LeftKnee
        {
            OFFSET 0.0 -34.998138427734375 0.0
            CHANNELS 3 Zrotation Xrotation Yrotation
            JOINT LeftFoot
            {
                OFFSET 0.0 -44.41937255859375 0.0
                CHANNELS 3 Zrotation Xrotation Yrotation
                End Site
                {
                    OFFSET 0.0 0.0 17.767751693725586
                }
            }
        }
    }
    JOINT RightHip
    {
        OFFSET -18.05918145368515 -18.05918145368515 0.0
        CHANNELS 3 Zrotation Xrotation Yrotation
        JOINT RightKnee
        {
            OFFSET 0.0 -34.998138427734375 0.0
            CHANNELS 3 Zrotation Xrotation Yrotation
            JOINT RightFoot
            {
                OFFSET 0.0 -44.41937255859375 0.0
                CHANNELS 3 Zrotation Xrotation Yrotation
                End Site
                {
                    OFFSET 0.0 0.0 17.767751693725586
                }
            }
        }
    }
}
MOTION
Frames: 6
Frame Time: 0.03333333333333333
58.39999771118164 0.10000000149011612 9.800000190734863 2.3632452073792503 4.35328304217354 -36.702252446439445 -3.7134625154825127e-08 -9.810474664496177e-08 5.135758601778752 105.67217143793602 -1.6399868843861454 171.61080543069508 -1.1762445058354547e-06 3.671109589786324e-06 27.434728561511694 9.541664044390553e-15 -2.648343778830095e-31 -3.1805546814635176e-15 -155.13152287807728 13.045412169109696 -171.53876549735585 -1.1059314793675986e-06 2.0004018663662106e-06 -126.02431888021424 0.0 0.0 -6.3611093629270335e-15 4.77360891785797 -26.315872079940867 37.835202792678544 14.842058780661715 12.736292404158455 -37.421328110255644 5.931186588004901e-32 7.951386703658792e-16 -8.547740706433202e-15 -4.6176994862232705 8.471919515468306 26.26836755663824 -5.262245083517432 4.0316246692301245 8.126358131662684 9.655420026984722e-33 3.1805546814635168e-15 -3.4787316828507215e-16
57.900001525878906 0.10000000149011612 8.0 2.9077600014386853 3.447319509138887 -36.431296256634475 -1.498818835749019e-08 -2.0702058307223434e-07 2.6351084269754654 104.25838228805905 1.5275337174611725 171.43497083287713 -2.940365245476051e-06 -5.061750844941233e-06 28.225997864743725 7.951386703658792e-15 0.0 0.0 -152.5201605209027 20.537957638668786 -174.46187756354573 1.4215652606600088e-06 3.0192498647220137e-06 -128.2782432928794 3.1805546814635168e-15 -2.3854160110976376e-15 6.3611093629270335e-15 4.3906602290949355 -26.29295861347728 39.11902362943206 14.969514932791913 11.443278154074955 -35.46782877643557 0.0 0.0 -6.112628528437696e-15 -4.638205999942258 8.743693560444768 25.38662293623751 -5.363929161736886 3.026221864861312 5.8740563983815015 1.2123155725845774e-35 6.21202086223343e-18 -2.236327510404035e-16
57.5 0.10000000149011612 6.199999809265137 3.4517564636960607 2.902497135863305 -36.7577985474465 -1.3406774865845532e-07 2.6461094133468814e-07 1.2391209893187316 103.15263555524193 1.918870682088374 172.12468148086504 -1.6280218786665022e-07 1.0952648529695736e-07 28.371638531902164 0.0 0.0 -6.361109362927033e-15 -148.4491983594376 27.569157644955293 -177.11954480039208 5.9783892591041075e-06 2.842464301399187e-06 -130.51004336791266 -1.7655625192200634e-31 3.1805546814635168e-15 6.3611093629270335e-15 4.459842468262381 -25.825117063327482 39.59138671437831 14.101078853690918 10.041208938069518 -32.15841151869616 0.0 0.0 -9.939233379573489e-17 -4.435535307809423 7.737561966068352 23.3583110255781 -5.322031377569567 3.184782390474614 6.050117830172826 1.987846675914698e-16 8.620910738379216e-35 4.969616689786745e-17
57.20000457763672 0.10000000149011612 4.5 3.982528717203696 2.3500937342901937 -37.53021260726663 -5.887451064448475e-09 1.0349955276272537e-07 0.026936330676224182 101.95497851479978 1.9562419008710545 172.61918165534354 -1.2922406334824385e-08 1.387149238202743e-07 29.241120081919124 5.565970692561154e-15 -3.1805546814635168e-15 1.5448672043175555e-31 -142.83649694029714 33.443188952536886 179.22343361914682 -1.0741103226420927e-06 2.545710034434339e-06 -132.9448133760354 6.361109362927035e-15 0.0 0.0 4.573517234160871 -24.623818097438836 38.319494847785556 12.194869858126594 8.454235022787628 -26.89561362878144 -7.951386703658792e-16 1.5902773407317584e-15 -1.3914926731402886e-15 -4.240277510687832 6.148104538372616 21.01225128691829 -5.321798309139687 4.334590299817908 8.197831573097348 0.0 0.0 -5.466578358765419e-16
57.0 0.20000000298023224 3.0 4.7036124218877795 1.8064524139483098 -38.162655638677705 -8.15175361440183e-08 -1.8295380580554842e-07 -1.388617757470958 100.84957879658329 -0.44423803054036376 173.6206420202228 3.2318874362725473e-06 1.5506555028386663e-07 29.72014003958107 3.975693351829396e-15 -3.1805546814635168e-15 1.1034765745125397e-31 -135.5704379017035 37.99546044755836 174.53885943303254 5.754715419186397e-07 7.627358864411726e-06 -135.0650277067804 -3.1805546814635168e-15 -3.1805546814635168e-15 -8.827812596100317e-32 4.421375433382061 -23.498611905590057 36.98739009436841 10.583340900290818 6.78634083442222 -21.905240958052655 0.0 0.0 2.981770013872048e-16 -4.206999803343232 4.767938274556481 19.110744185559128 -5.438200594676607 5.218144573600106 9.689536244301593 4.9696166897867443e-17 2.424631145169155e-35 5.590818776010087e-17
56.80000305175781 0.30000001192092896 1.7000000476837158 5.260031641124634 0.905551651844431 -38.31516865734472 2.6287813755376293e-08 -3.959027441269865e-08 -3.2550615441135773 99.6422570435011 -2.6309068790741468 174.43719972358093 -1.148704802280776e-06 2.1613638874904166e-06 30.12547507544895 -3.1805546814635168e-15 -1.7655625192200634e-31 6.3611093629270335e-15 -127.9916251958455 41.07589626393419 169.7076048003526 -2.728454673750905e-06 9.512343782383187e-07 -137.00902139908263 -1.7655625192200634e-31 3.1805546814635168e-15 6.3611093629270335e-15 3.791928481391595 -22.41473418319525 35.6464672828705 9.761394584408194 5.510379823119753 -18.258545203259693 7.95138670365879e-16 1.5902773407317582e-15 4.174478019420865e-15 -4.597069882379442 4.59760880242381 18.711637582047793 -5.330947713072674 5.0187229287228075 9.07557312458558 1.2424041724466865e-16 1.553005215558357e-18 -1.0684675883041504e-15
